{"title":"The.Legend.is.Born-Ip.Man.2010.DVDSCR.XviD-ZJM","uid":5731754,"size":1031806117,"categoryP":"video","categoryS":"movies","magnet":"?xt=urn:btih:025f5fef14b3e1996383dad77d06fd223353df4e&amp;dn=The.Legend.is.Born-Ip.Man.2010.DVDSCR.XviD-ZJM&amp;tr=udp%3A%2F%2Ftracker.openbittorrent.com%3A80&amp;tr=udp%3A%2F%2Fopen.demonii.com%3A1337&amp;tr=udp%3A%2F%2Ftracker.coppersurfer.tk%3A6969&amp;tr=udp%3A%2F%2Fexodus.desync.com%3A6969","seeders":0,"leechers":1,"uploader":"TvTeam","files":4,"time":1280677464,"description":". \n  &lt;a href=&quot;\nhttp://www.torrentday.com/&quot; rel=&quot;nofollow&quot; target=&quot;_NEW&quot;&gt;\nhttp://www.torrentday.com/&lt;/a&gt;        :     The Hottest Private Tracker On The Net!!!\n\n\n               www . TorrentDay . Com \n(((((((((((((= Enjoy No RAR releases =))))))))))))))))))))\n\n\n...................................NFO:....................................\n\n.General\nComplete name                    : The.Legend.is.Born-Ip.Man.2010.DVDSCR.XviD-ZJM.avi\nFormat                           : AVI\nFormat/Info                      : Audio Video Interleave\nFile size                        : 984 MiB\nDuration                         : 1h 38mn\nOverall bit rate                 : 1 402 Kbps\nWriting application              : VirtualDubMod 1.5.10.1 (Build 2366/Release)\nWriting library                  : VirtualDubMod Build 2366/Release\n\nVideo\nID                               : 0\nFormat                           : MPEG-4 Visual\nFormat settings, BVOP            : Yes\nFormat settings, QPel            : No\nFormat settings, GMC             : No warppoints\nFormat settings, Matrix          : Default (H.263)\nMuxing mode                      : Packed bitstream\nCodec ID                         : DX50\nCodec ID/Hint                    : DivX 5\nDuration                         : 1h 38mn\nBit rate                         : 1 200 Kbps\nWidth                            : 720 pixels\nHeight                           : 316 pixels\nDisplay aspect ratio             : 2.25:1\nFrame rate                       : 25.000 fps\nColor space                      : YUV\nChroma subsampling               : 4:2:0\nBit depth                        : 8 bits\nScan type                        : Progressive\nBits/(Pixel*Frame)               : 0.211\nStream size                      : 842 MiB (86%)\nWriting library                  : DivX 5.2.1 (WaffleDay) (UTC 2004-09-08)\n\nAudio\nID                               : 1\nFormat                           : AC-3\nFormat/Info                      : Audio Coding 3\nMode extension                   : CM (complete main)\nCodec ID                         : 2000\nDuration                         : 1h 38mn\nBit rate mode                    : Constant\nBit rate                         : 192 Kbps\nChannel(s)                       : 2 channels\nChannel positions                : Front: L R\nSampling rate                    : 48.0 KHz\nStream size                      : 135 MiB (14%)\nAlignment                        : Aligned on interleaves\nInterleave, duration             : 40 ms (1.00 video frame)\nInterleave, preload duration     : 512 ms","torrent":{"xt":"urn:btih:025f5fef14b3e1996383dad77d06fd223353df4e","amp;dn":"The.Legend.is.Born-Ip.Man.2010.DVDSCR.XviD-ZJM","amp;tr":["udp%3A%2F%2Ftracker.openbittorrent.com%3A80","udp%3A%2F%2Fopen.demonii.com%3A1337","udp%3A%2F%2Ftracker.coppersurfer.tk%3A6969","udp%3A%2F%2Fexodus.desync.com%3A6969"],"infoHash":"025f5fef14b3e1996383dad77d06fd223353df4e","infoHashBuffer":{"type":"Buffer","data":[2,95,95,239,20,179,225,153,99,131,218,215,125,6,253,34,51,83,223,78]},"announce":[],"urlList":[]}}